<svg width="24" height="16" viewBox="-3.5 0 24 16" fill="none" xmlns="http://www.w3.org/2000/svg">
<path id="Vector" fill-rule="evenodd" clip-rule="evenodd" d="M0.537005 4.65C0.517771 4.70676 0.505641 4.76631 0.501558 4.82779L0.501128 4.83451L0.501015 4.83679L0.500638 4.84439L0.500579 4.84594L0.500472 4.84907L0.500286 4.85431L0.500251 4.85571L0.500161 4.86015L0.500071 4.86426L0.5 4.87425C0.500006 4.87743 0.500024 4.88063 0.500071 4.88383L0.500161 4.88836L0.500251 4.89279L0.500286 4.89418L0.500472 4.89944L0.500556 4.90206L0.500638 4.9041L0.500991 4.91132L0.501128 4.91399L0.501528 4.92026C0.505593 4.98173 0.517753 5.04171 0.537005 5.0985C0.576839 5.21645 0.648843 5.32753 0.75301 5.42073L5.59024 9.74842C5.95131 9.43716 5.94822 9.43993 6.28534 9.13832C6.62246 8.83671 6.43717 9.00248 6.81188 8.65546L3.4493 5.64709H9.85029C12.5669 5.64709 14.7724 7.62026 14.7724 10.0507C14.7724 12.4811 12.5669 14.4543 9.85026 14.4543L3.78237 14.4543C3.78237 14.6805 3.78237 14.8516 3.78237 15.2782C3.78236 15.7047 3.78237 15.6042 3.78237 16H9.85026C13.5204 16 16.5 13.3342 16.5 10.0507C16.5 6.76718 13.5204 4.10144 9.85026 4.10144H3.44921L6.81183 1.09294C6.37644 0.716399 6.56174 0.88217 6.22461 0.580561C5.88748 0.278953 5.92095 0.308886 5.59018 0L0.752949 4.3278C0.648782 4.421 0.576833 4.53206 0.537005 4.65Z" fill="#0C1620"/>
</svg>
