<svg width="24" height="24" viewBox="0 0 24 24" fill="none" xmlns="http://www.w3.org/2000/svg">
<g clip-path="url(#clip0_2001_26571)">
<path d="M17 17C15.6212 17 14.5 18.1212 14.5 19.5C14.5 20.8788 15.6212 22 17 22C18.3788 22 19.5 20.8788 19.5 19.5C19.5 18.1212 18.3788 17 17 17ZM17 20.75C16.3109 20.75 15.75 20.1891 15.75 19.5C15.75 18.8109 16.3109 18.25 17 18.25C17.6891 18.25 18.25 18.8109 18.25 19.5C18.25 20.1891 17.6891 20.75 17 20.75Z" fill="white"/>
<path d="M9.5 17C8.12121 17 7 18.1212 7 19.5C7 20.8788 8.12122 22 9.5 22C10.8788 22 12 20.8788 12 19.5C12 18.1212 10.8788 17 9.5 17ZM9.5 20.75C8.81091 20.75 8.25 20.1891 8.25 19.5C8.25 18.8109 8.81091 18.25 9.5 18.25C10.1891 18.25 10.75 18.8109 10.75 19.5C10.75 20.1891 10.1891 20.75 9.5 20.75Z" fill="white"/>
<path d="M21.8859 6.01489C21.7687 5.84888 21.5782 5.75 21.375 5.75H17V7H20.4882L17.8093 14.5H7.53832L5.74329 2.53223C5.6969 2.22644 5.43445 2 5.125 2H2V3.25H4.58667L6.38172 15.2178C6.42811 15.5236 6.69056 15.75 7.00001 15.75H18.25C18.5143 15.75 18.7499 15.584 18.8384 15.335L21.9634 6.58496C22.0317 6.39392 22.003 6.18091 21.8859 6.01489Z" fill="white"/>
<path d="M11.49 8.648C11.49 8.348 11.508 8.076 11.544 7.832C11.584 7.584 11.668 7.344 11.796 7.112C11.912 6.888 12.05 6.706 12.21 6.566C12.37 6.422 12.542 6.284 12.726 6.152C12.91 6.02 13.092 5.858 13.272 5.666C13.432 5.486 13.538 5.306 13.59 5.126C13.642 4.942 13.668 4.748 13.668 4.544C13.668 4.364 13.646 4.202 13.602 4.058C13.562 3.91 13.494 3.784 13.398 3.68C13.254 3.5 13.074 3.376 12.858 3.308C12.646 3.24 12.424 3.206 12.192 3.206C11.972 3.206 11.764 3.236 11.568 3.296C11.376 3.356 11.216 3.45 11.088 3.578C10.96 3.694 10.866 3.836 10.806 4.004C10.746 4.168 10.716 4.346 10.716 4.538H9.6C9.624 4.19 9.706 3.86 9.846 3.548C9.99 3.232 10.188 2.972 10.44 2.768C10.676 2.568 10.946 2.422 11.25 2.33C11.554 2.234 11.86 2.186 12.168 2.186C12.576 2.186 12.962 2.248 13.326 2.372C13.694 2.496 14 2.702 14.244 2.99C14.432 3.194 14.572 3.428 14.664 3.692C14.756 3.956 14.802 4.234 14.802 4.526C14.802 4.882 14.73 5.214 14.586 5.522C14.446 5.83 14.256 6.108 14.016 6.356C13.884 6.5 13.74 6.632 13.584 6.752C13.432 6.872 13.286 6.992 13.146 7.112C13.01 7.232 12.902 7.364 12.822 7.508C12.718 7.696 12.658 7.87 12.642 8.03C12.63 8.186 12.624 8.392 12.624 8.648H11.49ZM11.496 11V9.686H12.624V11H11.496Z" fill="white"/>
</g>
<defs>
<clipPath id="clip0_2001_26571">
<rect width="20" height="20" fill="white" transform="translate(2 2)"/>
</clipPath>
</defs>
</svg>
