<svg width="20" height="20" viewBox="0 0 20 20" fill="none" xmlns="http://www.w3.org/2000/svg">
<g id="Group">
<g id="Vector">
<path d="M0.641692 20H7.74685C8.10123 20 8.38854 19.7119 8.38854 19.3566V12.2326C8.38854 11.8773 8.10123 11.5892 7.74685 11.5892H0.641692C0.287307 11.5892 0 11.8773 0 12.2326V19.3566C0 19.7119 0.287307 20 0.641692 20ZM1.28338 12.876H7.10516V18.7132H1.28338V12.876Z" fill="#303030"/>
<path d="M0.641692 20H7.74685C8.10123 20 8.38854 19.7119 8.38854 19.3566V12.2326C8.38854 11.8773 8.10123 11.5892 7.74685 11.5892H0.641692C0.287307 11.5892 0 11.8773 0 12.2326V19.3566C0 19.7119 0.287307 20 0.641692 20ZM1.28338 12.876H7.10516V18.7132H1.28338V12.876Z" fill="black" fill-opacity="0.2"/>
</g>
<g id="Vector_2">
<path d="M7.74685 1.47534H0.641692C0.287307 1.47534 0 1.76341 0 2.11874V9.24278C0 9.59811 0.287307 9.88618 0.641692 9.88618H7.74685C8.10123 9.88618 8.38854 9.59811 8.38854 9.24278V2.11874C8.38854 1.76341 8.10123 1.47534 7.74685 1.47534ZM7.10516 8.59939H1.28338V2.76214H7.10516V8.59939Z" fill="#303030"/>
<path d="M7.74685 1.47534H0.641692C0.287307 1.47534 0 1.76341 0 2.11874V9.24278C0 9.59811 0.287307 9.88618 0.641692 9.88618H7.74685C8.10123 9.88618 8.38854 9.59811 8.38854 9.24278V2.11874C8.38854 1.76341 8.10123 1.47534 7.74685 1.47534ZM7.10516 8.59939H1.28338V2.76214H7.10516V8.59939Z" fill="black" fill-opacity="0.2"/>
</g>
<g id="Vector_3">
<path d="M14.7914 0.188451C14.5408 -0.0628171 14.1345 -0.0628171 13.8839 0.188451L8.85985 5.22591C8.73951 5.34657 8.67188 5.51021 8.67188 5.68084C8.67188 5.85151 8.73951 6.0151 8.85985 6.13576L13.884 11.1732C14.0093 11.2989 14.1735 11.3617 14.3377 11.3617C14.5019 11.3617 14.6661 11.2989 14.7914 11.1732L19.8155 6.13576C19.9358 6.0151 20.0035 5.85147 20.0035 5.68084C20.0035 5.51021 19.9358 5.34657 19.8155 5.22591L14.7914 0.188451ZM14.3377 9.80841L10.221 5.68084L14.3377 1.55331L18.4543 5.68084L14.3377 9.80841Z" fill="#303030"/>
<path d="M14.7914 0.188451C14.5408 -0.0628171 14.1345 -0.0628171 13.8839 0.188451L8.85985 5.22591C8.73951 5.34657 8.67188 5.51021 8.67188 5.68084C8.67188 5.85151 8.73951 6.0151 8.85985 6.13576L13.884 11.1732C14.0093 11.2989 14.1735 11.3617 14.3377 11.3617C14.5019 11.3617 14.6661 11.2989 14.7914 11.1732L19.8155 6.13576C19.9358 6.0151 20.0035 5.85147 20.0035 5.68084C20.0035 5.51021 19.9358 5.34657 19.8155 5.22591L14.7914 0.188451ZM14.3377 9.80841L10.221 5.68084L14.3377 1.55331L18.4543 5.68084L14.3377 9.80841Z" fill="black" fill-opacity="0.2"/>
</g>
<g id="Vector_4">
<path d="M17.8875 20C18.2419 20 18.5292 19.7119 18.5292 19.3566V12.2326C18.5292 11.8773 18.2419 11.5892 17.8875 11.5892H10.7823C10.4279 11.5892 10.1406 11.8773 10.1406 12.2326V19.3566C10.1406 19.7119 10.4279 20 10.7823 20H17.8875ZM11.424 12.876H17.2458V18.7132H11.424V12.876Z" fill="#303030"/>
<path d="M17.8875 20C18.2419 20 18.5292 19.7119 18.5292 19.3566V12.2326C18.5292 11.8773 18.2419 11.5892 17.8875 11.5892H10.7823C10.4279 11.5892 10.1406 11.8773 10.1406 12.2326V19.3566C10.1406 19.7119 10.4279 20 10.7823 20H17.8875ZM11.424 12.876H17.2458V18.7132H11.424V12.876Z" fill="black" fill-opacity="0.2"/>
</g>
</g>
</svg>
