<svg width="24" height="24" viewBox="0 0 24 24" fill="none" xmlns="http://www.w3.org/2000/svg">
<rect width="24" height="24" fill="#1E1E1E"/>
<g id="&#208;&#146;&#208;&#176;&#209;&#128;&#208;&#184;&#208;&#176;&#208;&#189;&#209;&#130;&#209;&#139; &#208;&#178;&#208;&#184;&#208;&#183;&#209;&#131;&#208;&#176;&#208;&#187;&#208;&#190;&#208;&#178;">
<path d="M-10459 -1029C-10459 -1030.1 -10458.1 -1031 -10457 -1031H8174C8175.1 -1031 8176 -1030.1 8176 -1029V10100C8176 10101.1 8175.11 10102 8174 10102H-10457C-10458.1 10102 -10459 10101.1 -10459 10100V-1029Z" fill="#444444"/>
<path d="M-10457 -1030H8174V-1032H-10457V-1030ZM8175 -1029V10100H8177V-1029H8175ZM8174 10101H-10457V10103H8174V10101ZM-10458 10100V-1029H-10460V10100H-10458ZM-10457 10101C-10457.6 10101 -10458 10100.6 -10458 10100H-10460C-10460 10101.7 -10458.7 10103 -10457 10103V10101ZM8175 10100C8175 10100.6 8174.55 10101 8174 10101V10103C8175.66 10103 8177 10101.7 8177 10100H8175ZM8174 -1030C8174.55 -1030 8175 -1029.55 8175 -1029H8177C8177 -1030.66 8175.66 -1032 8174 -1032V-1030ZM-10457 -1032C-10458.7 -1032 -10460 -1030.66 -10460 -1029H-10458C-10458 -1029.55 -10457.6 -1030 -10457 -1030V-1032Z" fill="white" fill-opacity="0.1"/>
<g id="&#208;&#154;&#208;&#176;&#209;&#130;&#208;&#176;&#208;&#187;&#208;&#190;&#208;&#179;">
<path d="M-455 -708C-455 -709.105 -454.105 -710 -453 -710H7724C7725.1 -710 7726 -709.105 7726 -708V8941C7726 8942.1 7725.1 8943 7724 8943H-453C-454.104 8943 -455 8942.1 -455 8941V-708Z" fill="#959595" fill-opacity="0.8"/>
<path d="M-453 -709H7724V-711H-453V-709ZM7725 -708V8941H7727V-708H7725ZM7724 8942H-453V8944H7724V8942ZM-454 8941V-708H-456V8941H-454ZM-453 8942C-453.552 8942 -454 8941.55 -454 8941H-456C-456 8942.66 -454.656 8944 -453 8944V8942ZM7725 8941C7725 8941.55 7724.55 8942 7724 8942V8944C7725.66 8944 7727 8942.66 7727 8941H7725ZM7724 -709C7724.55 -709 7725 -708.552 7725 -708H7727C7727 -709.657 7725.66 -711 7724 -711V-709ZM-453 -711C-454.657 -711 -456 -709.657 -456 -708H-454C-454 -708.552 -453.552 -709 -453 -709V-711Z" fill="white" fill-opacity="0.1"/>
<g id="&#208;&#154;&#208;&#176;&#209;&#130;&#208;&#176;&#208;&#187;&#208;&#190;&#208;&#179; (&#208;&#186;&#208;&#190;&#208;&#187;&#208;&#187;&#208;&#181;&#208;&#186;&#209;&#134;&#208;&#184;&#208;&#184;)" clip-path="url(#clip0_0_1)">
<rect width="1440" height="3217" transform="translate(-258 -293)" fill="white"/>
<g id="content">
<g id="catalog">
<g id="tabs">
<g id="Frame 431">
<g id="WF Tab Bar">
<g id="Tab">
<g id="collections">
<g id="Rectangle 34">
<mask id="path-5-inside-1_0_1" fill="white">
<rect x="3.51953" y="12" width="12" height="12" rx="1" transform="rotate(-45 3.51953 12)"/>
</mask>
<rect x="3.51953" y="12" width="12" height="12" rx="1" transform="rotate(-45 3.51953 12)" stroke="black" stroke-width="3" mask="url(#path-5-inside-1_0_1)"/>
</g>
</g>
</g>
</g>
</g>
</g>
</g>
</g>
</g>
</g>
</g>
<defs>
<clipPath id="clip0_0_1">
<rect width="1440" height="3217" fill="white" transform="translate(-258 -293)"/>
</clipPath>
</defs>
</svg>
