<svg width="24" height="16" viewBox="-3 0 24 16" fill="none" xmlns="http://www.w3.org/2000/svg">
<path id="Vector" d="M13.1786 3.06593e-07C12.3992 -0.000257374 11.6277 0.161916 10.9098 0.476891C10.192 0.791866 9.54257 1.25322 9 1.83356C8.45743 1.25322 7.80796 0.791866 7.09015 0.476891C6.37235 0.161916 5.60083 -0.000257374 4.82143 3.06593e-07C2.115 3.06593e-07 0 2.44031 0 5.55403C0 7.74098 1.13143 12.0015 8.71071 15.9287C8.80044 15.9756 8.89952 16 9 16C9.10048 16 9.19956 15.9756 9.28929 15.9287C16.8686 12.0015 18 7.74098 18 5.55403C18 2.44031 15.885 3.06593e-07 13.1786 3.06593e-07Z" fill="#0C1620"/>
</svg>
