<svg width="24" height="24" viewBox="-2 -2 24 24" fill="none" xmlns="http://www.w3.org/2000/svg">
<g id="settings_425785 1" clip-path="url(#clip0_933_95405)">
<g id="Group">
<g id="Group_2">
<path id="Vector" d="M13.1627 0.00012207C11.9907 0.00012207 11.0043 0.808091 10.7302 1.89622H0.612227C0.274141 1.89622 0 2.17032 0 2.50844C0 2.84657 0.274141 3.12071 0.612227 3.12071H10.7303C11.0043 4.20879 11.9907 5.0168 13.1627 5.0168C14.5458 5.0168 15.671 3.89157 15.671 2.50848C15.671 1.1254 14.5457 0.00012207 13.1627 0.00012207Z" fill="#0C1620"/>
</g>
</g>
<g id="Group_3">
<g id="Group_4">
<path id="Vector_2" d="M6.83734 7.49182C5.66543 7.49182 4.67891 8.29979 4.40488 9.38791H0.612227C0.274141 9.38791 0 9.66202 0 10.0001C0 10.3383 0.274141 10.6123 0.612227 10.6123H4.40488C4.67887 11.7004 5.66539 12.5084 6.83734 12.5084C8.22043 12.5084 9.34562 11.3832 9.34562 10.0001C9.34562 8.61702 8.22039 7.49182 6.83734 7.49182Z" fill="#0C1620"/>
</g>
</g>
<g id="Group_5">
<g id="Group_6">
<path id="Vector_3" d="M19.3865 1.89621H16.8438C16.9111 2.30242 16.9111 2.71437 16.8438 3.1207H19.3865C19.7246 3.1207 19.9988 2.84656 19.9988 2.50848C19.9988 2.17039 19.7246 1.89621 19.3865 1.89621Z" fill="#0C1620"/>
</g>
</g>
<g id="Group_7">
<g id="Group_8">
<path id="Vector_4" d="M13.1627 14.9832C11.9907 14.9832 11.0043 15.7912 10.7302 16.8793H0.612227C0.274141 16.8793 0 17.1534 0 17.4916C0 17.8297 0.274141 18.1038 0.612227 18.1038H10.7303C11.0043 19.1919 11.9907 19.9999 13.1627 19.9999C14.5458 19.9999 15.671 18.8747 15.671 17.4916C15.671 16.1085 14.5457 14.9832 13.1627 14.9832Z" fill="#0C1620"/>
</g>
</g>
<g id="Group_9">
<g id="Group_10">
<path id="Vector_5" d="M19.3865 16.8793H16.8438C16.9111 17.2855 16.9111 17.6975 16.8438 18.1038H19.3865C19.7246 18.1038 19.9988 17.8297 19.9988 17.4916C19.9988 17.1535 19.7246 16.8793 19.3865 16.8793Z" fill="#0C1620"/>
</g>
</g>
<g id="Group_11">
<g id="Group_12">
<path id="Vector_6" d="M19.3877 9.38788H10.5195C10.5868 9.79401 10.5869 10.206 10.5195 10.6124H19.3877C19.7258 10.6124 19.9999 10.3382 19.9999 10.0001C19.9999 9.66206 19.7257 9.38788 19.3877 9.38788Z" fill="#0C1620"/>
</g>
</g>
</g>
<defs>
<clipPath id="clip0_933_95405">
<rect width="20" height="20" fill="white"/>
</clipPath>
</defs>
</svg>
