<svg width="20" height="20" viewBox="0 0 20 20" fill="none" xmlns="http://www.w3.org/2000/svg">
<g id="info" clip-path="url(#clip0_3001_30408)">
<g id="Layer 2">
<path id="Vector" d="M10 20C8.02219 20 6.08879 19.4135 4.4443 18.3147C2.79981 17.2159 1.51809 15.6541 0.761209 13.8268C0.00433284 11.9996 -0.1937 9.98891 0.192152 8.0491C0.578004 6.10929 1.53041 4.32746 2.92894 2.92894C4.32746 1.53041 6.10929 0.578004 8.0491 0.192152C9.98891 -0.1937 11.9996 0.00433284 13.8268 0.761209C15.6541 1.51809 17.2159 2.79981 18.3147 4.4443C19.4135 6.08879 20 8.02219 20 10C19.997 12.6513 18.9425 15.1931 17.0678 17.0678C15.1931 18.9425 12.6513 19.997 10 20ZM10 1.39535C8.29816 1.39535 6.63454 1.90001 5.21951 2.8455C3.80449 3.79099 2.70161 5.13485 2.05034 6.70715C1.39908 8.27944 1.22868 10.0095 1.56069 11.6787C1.8927 13.3478 2.71221 14.881 3.9156 16.0844C5.11898 17.2878 6.65218 18.1073 8.32132 18.4393C9.99046 18.7713 11.7206 18.6009 13.2929 17.9497C14.8652 17.2984 16.209 16.1955 17.1545 14.7805C18.1 13.3655 18.6047 11.7018 18.6047 10C18.6022 7.71866 17.6948 5.53147 16.0817 3.91832C14.4685 2.30516 12.2813 1.39782 10 1.39535Z" fill="#0C1620"/>
<path id="Vector_2" d="M9.99846 15.4185C9.81342 15.4185 9.63596 15.345 9.50513 15.2142C9.37429 15.0833 9.30078 14.9059 9.30078 14.7208V9.06968C9.30078 8.88465 9.37429 8.70719 9.50513 8.57635C9.63596 8.44551 9.81342 8.37201 9.99846 8.37201C10.1835 8.37201 10.3609 8.44551 10.4918 8.57635C10.6226 8.70719 10.6961 8.88465 10.6961 9.06968V14.7208C10.6961 14.9059 10.6226 15.0833 10.4918 15.2142C10.3609 15.345 10.1835 15.4185 9.99846 15.4185Z" fill="#0C1620"/>
<path id="Vector_3" d="M10.0005 7.20934C10.5143 7.20934 10.9308 6.79286 10.9308 6.27911C10.9308 5.76536 10.5143 5.34888 10.0005 5.34888C9.48679 5.34888 9.07031 5.76536 9.07031 6.27911C9.07031 6.79286 9.48679 7.20934 10.0005 7.20934Z" fill="#0C1620"/>
</g>
</g>
<defs>
<clipPath id="clip0_3001_30408">
<rect width="20" height="20" fill="white"/>
</clipPath>
</defs>
</svg>
