<svg width="80" height="80" viewBox="0 0 80 80" fill="none" xmlns="http://www.w3.org/2000/svg">
<g id="loader">
<path id="Ellipse 12" d="M76 40C78.2091 40 80.0207 41.7954 79.8002 43.9935C79.148 50.4938 76.9108 56.7572 73.2588 62.2228C68.8635 68.8008 62.6164 73.9277 55.3073 76.9552C47.9983 79.9827 39.9556 80.7748 32.1964 79.2314C24.4371 77.688 17.3098 73.8784 11.7157 68.2843C6.12163 62.6902 2.312 55.5629 0.768589 47.8036C-0.77482 40.0444 0.0173134 32.0017 3.04482 24.6927C6.07232 17.3836 11.1992 11.1365 17.7772 6.74122C23.2428 3.08921 29.5063 0.852018 36.0065 0.199819C38.2046 -0.0207256 40 1.79086 40 4V6.84817C40 9.05731 38.2008 10.82 36.0124 11.1222C31.6616 11.7229 27.4846 13.3019 23.8041 15.7611C19.0101 18.9644 15.2736 23.5173 13.0672 28.8441C10.8608 34.1709 10.2835 40.0323 11.4083 45.6872C12.5331 51.3421 15.3096 56.5365 19.3865 60.6135C23.4635 64.6904 28.6579 67.4669 34.3128 68.5917C39.9677 69.7165 45.8291 69.1392 51.1559 66.9328C56.4827 64.7263 61.0356 60.9899 64.2389 56.1959C66.6981 52.5154 68.2771 48.3384 68.8778 43.9876C69.18 41.7992 70.9427 40 73.1518 40H76Z" fill="#0C1620"/>
</g>
</svg>
