<svg width="24" height="24" viewBox="-4 -4 24 24" fill="none" xmlns="http://www.w3.org/2000/svg">
<path id="Vector" d="M7.23906 8.76094C7.33283 8.85471 7.3855 8.98188 7.3855 9.11448C7.3855 9.24709 7.33283 9.37426 7.23906 9.46803L1.70709 15H5.08488C5.21748 15 5.34466 15.0527 5.43843 15.1464C5.5322 15.2402 5.58488 15.3674 5.58488 15.5C5.58488 15.6326 5.5322 15.7598 5.43843 15.8536C5.34466 15.9473 5.21748 16 5.08488 16H0.5C0.367392 16 0.240215 15.9473 0.146447 15.8536C0.0526784 15.7598 0 15.6326 0 15.5V10.9152C0 10.7825 0.0526784 10.6554 0.146447 10.5616C0.240215 10.4678 0.367392 10.4152 0.5 10.4152C0.632608 10.4152 0.759785 10.4678 0.853553 10.5616C0.947322 10.6554 1 10.7825 1 10.9152V14.2929L6.53197 8.76094C6.62574 8.66717 6.75291 8.6145 6.88552 8.6145C7.01812 8.6145 7.14529 8.66717 7.23906 8.76094ZM15.5 0H10.9151C10.7825 0 10.6553 0.0526784 10.5616 0.146447C10.4678 0.240215 10.4151 0.367392 10.4151 0.5C10.4151 0.632608 10.4678 0.759785 10.5616 0.853553C10.6553 0.947322 10.7825 1 10.9151 1H14.2929L8.76094 6.53197C8.66811 6.62593 8.61623 6.7528 8.61663 6.88489C8.61703 7.01697 8.66968 7.14353 8.76308 7.23692C8.85647 7.33032 8.98303 7.38297 9.11511 7.38337C9.2472 7.38377 9.37407 7.33189 9.46803 7.23906L15 1.70706V5.08488C15 5.21748 15.0527 5.34466 15.1464 5.43843C15.2402 5.5322 15.3674 5.58488 15.5 5.58488C15.6326 5.58488 15.7598 5.5322 15.8536 5.43843C15.9473 5.34466 16 5.21748 16 5.08488V0.5C16 0.367392 15.9473 0.240215 15.8536 0.146447C15.7598 0.0526784 15.6326 0 15.5 0Z" fill="#0C1620"/>
</svg>
