<svg width="60" height="60" viewBox="0 0 60 60" fill="none" xmlns="http://www.w3.org/2000/svg">
<rect x="0.5" y="0.5" width="59" height="59" rx="29.5" fill="white"/>
<g clip-path="url(#clip0_2001_1864)">
<path d="M45.3581 15.2407H28.2387V16.2974H45.3581C46.2321 16.2974 46.9433 17.0085 46.9433 17.8826V33.5577H28.1331V18.018L25.4912 13.6149L22.8493 18.018V33.5577H21.088V12H15.0998V33.5577H13.0567V17.8826C13.0567 17.2317 13.4646 16.637 14.0717 16.4029L13.6914 15.417C12.6797 15.8072 12 16.798 12 17.8826V37.6086C12 39.0653 13.1851 40.2504 14.6419 40.2504H24.5401V44.1252H22.955C21.8867 44.1252 21.0176 44.9943 21.0176 46.0626V48H38.9824V46.0626C38.9824 44.9943 38.1133 44.1252 37.045 44.1252H35.4599V40.2504H45.3581C46.8149 40.2504 48 39.0653 48 37.6086V17.8826C48 16.4258 46.8149 15.2407 45.3581 15.2407ZM25.4912 15.6689L26.8798 17.9832L25.4912 18.8162L24.1026 17.9831L25.4912 15.6689ZM23.9061 19.0976L25.4912 20.0486L27.0763 19.0976V30.7397H23.9061V19.0976ZM23.9061 31.7965H27.0763V33.5577H23.9061V31.7965ZM16.1565 32.2897H18.7279V31.2329H16.1565V30.1762H17.6007V29.1195H16.1565V28.0627H18.7279V27.006H16.1565V25.9493H17.6007V24.8926H16.1565V23.8358H18.7279V22.7791H16.1565V21.7221H17.6007V20.6654H16.1565V19.6087H18.7279V18.5519H16.1565V17.4951H17.6007V16.4383H16.1565V15.3816H18.7279V14.3249H16.1565V13.0567H20.0313V33.5577H16.1565V32.2897ZM37.045 45.182C37.5306 45.182 37.9256 45.577 37.9256 46.0626V46.9432H22.0744V46.0626C22.0744 45.577 22.4694 45.182 22.955 45.182H37.045ZM25.5969 44.1252V40.2504H34.4032V44.1252H25.5969ZM46.9433 37.6086C46.9433 38.4826 46.2321 39.1937 45.3581 39.1937H14.6419C13.7679 39.1937 13.0567 38.4826 13.0567 37.6086V34.6145H46.9432V37.6086H46.9433Z" fill="#0C1620"/>
<path d="M33.5586 17.354V23.3422H45.8873V17.354H33.5586ZM44.8306 22.2855H34.6153V18.4107H44.8306V22.2855Z" fill="#0C1620"/>
<path d="M33.5586 24.3994V28.2742H39.1946V24.3994H33.5586ZM38.1378 27.2175H34.6153V25.4562H38.1378V27.2175Z" fill="#0C1620"/>
<path d="M40.25 24.3994V28.2742H45.886V24.3994H40.25ZM44.8292 27.2175H41.3067V25.4562H44.8292V27.2175Z" fill="#0C1620"/>
<path d="M32.3969 18.4107V17.354H29.2266V18.4107H30.2834V31.444H29.2266V32.5007H32.3969V31.444H31.3401V18.4107H32.3969Z" fill="#0C1620"/>
<path d="M30.5294 36.3755H29.4727V37.4322H30.5294V36.3755Z" fill="#0C1620"/>
<path d="M32.6427 36.3755H31.5859V37.4322H32.6427V36.3755Z" fill="black"/>
<path d="M28.4161 36.3755H27.3594V37.4322H28.4161V36.3755Z" fill="black"/>
<path d="M26.0177 25.7729H24.9609V26.8297H26.0177V25.7729Z" fill="black"/>
<path d="M26.0177 27.8867H24.9609V29.648H26.0177V27.8867Z" fill="black"/>
<path d="M26.0177 21.1938H24.9609V24.7164H26.0177V21.1938Z" fill="black"/>
<path d="M38.6661 29.6831H37.6094V30.7398H38.6661V29.6831Z" fill="black"/>
<path d="M36.5517 29.6831H34.0859V30.7398H36.5517V29.6831Z" fill="black"/>
<path d="M43.2431 29.6831H40.7773V30.7398H43.2431V29.6831Z" fill="black"/>
<path d="M45.3575 29.6831H44.3008V30.7398H45.3575V29.6831Z" fill="black"/>
</g>
<defs>
<clipPath id="clip0_2001_1864">
<rect width="36" height="36" fill="white" transform="translate(12 12)"/>
</clipPath>
</defs>
</svg>
