<svg width="60" height="60" viewBox="0 0 60 60" fill="none" xmlns="http://www.w3.org/2000/svg">
<rect x="0.5" y="0.5" width="59" height="59" rx="29.5" fill="white"/>
<path d="M45.4799 28.2677L44.5476 24.5387C44.8025 24.4846 44.9937 24.2585 44.9937 23.9875V23.3863C44.9937 22.0809 43.9316 21.0189 42.6263 21.0189H38.38V19.7787C38.38 19.1363 37.8574 18.6138 37.215 18.6138H15.5699C14.9275 18.6138 14.405 19.1363 14.405 19.7787V30C14.405 30.3113 14.6573 30.5637 14.9687 30.5637C15.2799 30.5637 15.5324 30.3114 15.5324 30V19.7787C15.5324 19.758 15.5492 19.7412 15.5699 19.7412H37.215C37.2357 19.7412 37.2525 19.758 37.2525 19.7787V30.0002C37.2525 30.3115 37.5049 30.5639 37.8162 30.5639C38.1275 30.5639 38.3799 30.3115 38.3799 30.0002V29.3612H45.0293C45.0299 29.3612 45.0303 29.3613 45.0308 29.3613C45.0313 29.3613 45.0318 29.3612 45.0323 29.3612C45.8505 29.3618 46.5453 29.8989 46.7839 30.6389H45.0312C44.7199 30.6389 44.4675 30.8912 44.4675 31.2026V32.4051C44.4675 33.379 45.2598 34.1713 46.2337 34.1713H46.8725V36.6514H45.3986C44.9145 35.2534 43.5855 34.2463 42.0249 34.2463C40.4643 34.2463 39.1353 35.2534 38.6512 36.6514H38.3798V32.405C38.3798 32.0937 38.1274 31.8413 37.8161 31.8413C37.5048 31.8413 37.2524 32.0937 37.2524 32.405V36.6512H25.5574C25.0733 35.2532 23.7443 34.2462 22.1837 34.2462C20.6231 34.2462 19.2941 35.2532 18.81 36.6512H15.5699C15.5492 36.6512 15.5324 36.6344 15.5324 36.6137V35.3736H17.9749C18.2862 35.3736 18.5386 35.1212 18.5386 34.8099C18.5386 34.4986 18.2863 34.2462 17.9749 34.2462H12.5637C12.2524 34.2462 12 34.4986 12 34.8099C12 35.1212 12.2524 35.3736 12.5637 35.3736H14.405V36.6137C14.405 37.2561 14.9276 37.7786 15.57 37.7786H18.6148C18.6146 37.7912 18.6138 37.8036 18.6138 37.8162C18.6138 39.7847 20.2153 41.3861 22.1837 41.3861C24.1521 41.3861 25.7536 39.7847 25.7536 37.8162C25.7536 37.8035 25.7528 37.7912 25.7526 37.7786H38.456C38.4559 37.7912 38.455 37.8036 38.455 37.8162C38.455 39.7847 40.0565 41.3861 42.0249 41.3861C43.9933 41.3861 45.5948 39.7847 45.5948 37.8162C45.5948 37.8035 45.594 37.7912 45.5938 37.7786H47.4362C47.7475 37.7786 47.9999 37.5263 47.9999 37.2149V31.2025C48 29.718 46.9047 28.4847 45.4799 28.2677ZM38.38 22.1462H42.6263C43.3101 22.1462 43.8664 22.7025 43.8664 23.3863V23.4238H38.38V22.1462ZM38.38 28.2339V24.5512H43.3887L44.3094 28.2339H38.38ZM22.1837 40.2589C20.8369 40.2589 19.7411 39.1632 19.7411 37.8163C19.7411 36.4694 20.8369 35.3737 22.1837 35.3737C23.5305 35.3737 24.6263 36.4694 24.6263 37.8163C24.6263 39.1632 23.5305 40.2589 22.1837 40.2589ZM42.0251 40.2589C40.6782 40.2589 39.5825 39.1632 39.5825 37.8163C39.5825 36.4694 40.6782 35.3737 42.0251 35.3737C43.3719 35.3737 44.4676 36.4694 44.4676 37.8163C44.4676 39.1632 43.3719 40.2589 42.0251 40.2589ZM46.8727 33.0439H46.2338C45.8816 33.0439 45.595 32.7573 45.595 32.405V31.7661H46.8726V33.0439H46.8727Z" fill="#0C1620"/>
<path d="M22.1845 36.6514C21.5421 36.6514 21.0195 37.1739 21.0195 37.8163C21.0195 38.4587 21.5421 38.9812 22.1845 38.9812C22.8268 38.9812 23.3494 38.4587 23.3494 37.8163C23.3494 37.1739 22.8268 36.6514 22.1845 36.6514Z" fill="#0C1620"/>
<path d="M42.0243 36.6514C41.3819 36.6514 40.8594 37.1739 40.8594 37.8163C40.8594 38.4587 41.3819 38.9812 42.0243 38.9812C42.6667 38.9812 43.1893 38.4587 43.1893 37.8163C43.1893 37.1739 42.6667 36.6514 42.0243 36.6514Z" fill="#0C1620"/>
<path d="M35.4109 34.2466H26.9934C26.6821 34.2466 26.4297 34.4989 26.4297 34.8103C26.4297 35.1216 26.682 35.374 26.9934 35.374H35.4109C35.7222 35.374 35.9746 35.1216 35.9746 34.8103C35.9746 34.4989 35.7223 34.2466 35.4109 34.2466Z" fill="#0C1620"/>
<path d="M20.9819 31.8413H13.7668C13.4555 31.8413 13.2031 32.0937 13.2031 32.405C13.2031 32.7163 13.4555 32.9687 13.7668 32.9687H20.9819C21.2931 32.9687 21.5456 32.7163 21.5456 32.405C21.5456 32.0937 21.2931 31.8413 20.9819 31.8413Z" fill="#0C1620"/>
<path d="M31.6024 24.19C31.3824 23.9699 31.0254 23.9699 30.8053 24.19L25.7926 29.2027L23.1849 26.595C22.9648 26.3748 22.6078 26.3748 22.3878 26.595C22.1676 26.8151 22.1676 27.172 22.3878 27.3921L25.394 30.3984C25.5041 30.5085 25.6484 30.5635 25.7926 30.5635C25.9368 30.5635 26.0811 30.5085 26.1911 30.3984L31.6024 24.9872C31.8225 24.7669 31.8225 24.4101 31.6024 24.19Z" fill="#0C1620"/>
</svg>
