<svg width="60" height="60" viewBox="0 0 60 60" fill="none" xmlns="http://www.w3.org/2000/svg">
<rect x="0.5" y="0.5" width="59" height="59" rx="29.5" fill="white"/>
<path d="M46.3992 34.8617C47.4516 33.8092 47.8963 32.382 47.6512 30.843L46.5418 23.8774C46.3944 22.9523 45.5723 22.542 44.836 22.6142C44.1103 22.6858 43.3942 23.2413 43.4298 24.1647L43.6029 28.655C42.8299 28.1536 41.7834 28.2414 41.1063 28.9185L37.3712 32.6536L36.7222 32.8275C35.9556 33.0329 35.3371 33.39 34.7758 33.9513L33.2088 35.5182C32.3794 36.3476 31.9516 37.3789 31.9372 38.5834L31.8903 42.4939H30.938C30.7051 42.4939 30.5161 42.6828 30.5161 42.9158V46.1883C30.5161 46.4213 30.7051 46.6102 30.938 46.6102H41.2201C41.453 46.6102 41.642 46.4213 41.642 46.1883V42.9158C41.642 42.8039 41.5975 42.6966 41.5184 42.6175C41.4393 42.5383 41.332 42.4939 41.2201 42.4939H40.2446L40.2061 41.9377C40.1682 41.3898 40.3459 40.915 40.7343 40.5266L46.3991 34.8618L46.3992 34.8617ZM40.7984 43.3376V45.7664H31.36V43.3376H40.7984ZM40.1378 39.93C39.5772 40.4906 39.3098 41.205 39.3645 41.9959L39.3989 42.4939H32.7342L32.7809 38.5934C32.7927 37.6032 33.1279 36.7924 33.8055 36.1148L35.3725 34.5479C35.8309 34.0894 36.3145 33.8102 36.9407 33.6424L37.6989 33.4393C37.7704 33.4202 37.8356 33.3824 37.888 33.33L41.703 29.515C42.152 29.066 42.8826 29.0661 43.3316 29.515C43.5309 29.7144 43.6493 29.9805 43.6651 30.2644C43.6833 30.5931 43.5617 30.9134 43.3316 31.1435L40.079 34.3962C39.9143 34.5609 39.9143 34.8281 40.079 34.9927C40.1614 35.0751 40.2693 35.1163 40.3773 35.1163C40.4853 35.1163 40.5933 35.0751 40.6757 34.9927L43.9283 31.7401L43.9293 31.739C44.3258 31.342 44.5363 30.7919 44.5079 30.2281C44.5079 30.2269 44.508 30.2258 44.5079 30.2246L44.2731 24.132C44.2556 23.68 44.6101 23.4841 44.9189 23.4537C45.2372 23.4222 45.6352 23.5492 45.7086 24.0099L46.818 30.9754C47.0224 32.2588 46.6714 33.3964 45.8027 34.265L40.1379 39.9298L40.1378 39.93ZM29.0601 42.4939H28.1078L28.061 38.5834C28.0466 37.3789 27.6187 36.3476 26.7894 35.5182L25.2224 33.9513C24.6612 33.39 24.0427 33.0328 23.2759 32.8275L22.627 32.6536L18.8919 28.9185C18.2149 28.2415 17.1682 28.1536 16.3954 28.655L16.5684 24.1647C16.604 23.2413 15.8879 22.6858 15.1622 22.6142C14.426 22.5421 13.6038 22.9523 13.4564 23.8774L12.347 30.843C12.1019 32.3821 12.5465 33.8093 13.599 34.8617L19.2638 40.5265C19.6522 40.9149 19.8299 41.3897 19.792 41.9376L19.7536 42.4938H18.778C18.6662 42.4938 18.5589 42.5382 18.4797 42.6174C18.4006 42.6965 18.3562 42.8038 18.3562 42.9157V46.1882C18.3562 46.4212 18.5451 46.6101 18.778 46.6101H29.0601C29.2931 46.6101 29.482 46.4212 29.482 46.1882V42.9157C29.482 42.6827 29.2931 42.4939 29.0601 42.4939ZM14.1956 34.2652C13.327 33.3966 12.9759 32.259 13.1803 30.9756L14.2897 24.0101C14.3631 23.5494 14.7608 23.4227 15.0795 23.454C15.3883 23.4844 15.7427 23.6803 15.7253 24.1322L15.4904 30.2248V30.2283C15.4621 30.792 15.6725 31.3422 16.069 31.7392L16.0701 31.7403L19.3227 34.9929C19.4051 35.0753 19.513 35.1165 19.621 35.1165C19.729 35.1165 19.8369 35.0753 19.9194 34.9929C20.0841 34.8282 20.0841 34.5611 19.9194 34.3964L16.6668 31.1438C16.4366 30.9137 16.3151 30.5933 16.3333 30.2646C16.349 29.9807 16.4674 29.7146 16.6668 29.5153C17.1158 29.0663 17.8463 29.0664 18.2953 29.5153L22.1104 33.3304C22.1627 33.3828 22.2279 33.4205 22.2995 33.4397L23.0576 33.6428C23.6838 33.8106 24.1674 34.0898 24.6258 34.5481L26.1928 36.1151C26.8704 36.7928 27.2055 37.6035 27.2174 38.5939L27.2641 42.4942H20.5993L20.6338 41.9963C20.6885 41.2053 20.4211 40.491 19.8605 39.9304L14.1957 34.2656L14.1956 34.2652ZM28.6382 45.7664H19.1998V43.3376H27.6908H28.6382L28.6382 45.7664ZM38.6756 17.8706C38.6735 17.5187 38.6715 17.1751 38.6725 16.8413C38.6729 16.7293 38.6286 16.6216 38.5495 16.5422C38.4703 16.4628 38.3628 16.4181 38.2507 16.4181C35.8099 16.4181 32.4388 15.6551 30.2973 13.5137C30.1325 13.349 29.8655 13.3489 29.7007 13.5137C27.5593 15.655 24.1882 16.4181 21.7474 16.4181C21.6353 16.4181 21.5278 16.4627 21.4486 16.5421C21.3695 16.6215 21.3252 16.7292 21.3255 16.8413C21.3266 17.175 21.3245 17.5187 21.3225 17.8706C21.2933 22.8606 21.2533 29.6945 29.8159 33.8201C29.8738 33.848 29.9364 33.862 29.999 33.862C30.0616 33.862 30.1242 33.848 30.1821 33.8201C38.7448 29.6945 38.7047 22.8605 38.6755 17.8705L38.6756 17.8706ZM29.9991 32.9708C22.1012 29.0709 22.1371 22.8675 22.1663 17.8756C22.1675 17.6657 22.1688 17.4586 22.1693 17.2549C24.6223 17.174 27.8012 16.3854 29.9991 14.3943C32.197 16.3854 35.3759 17.1739 37.8289 17.2549C37.8294 17.4586 37.8306 17.6656 37.8319 17.8755C37.8611 22.8673 37.897 29.0708 29.9991 32.9708ZM33.9684 20.1847C33.6408 19.9445 33.2392 19.8464 32.8377 19.9082C32.4362 19.97 32.0828 20.1845 31.843 20.5117L29.1913 24.1183L28.2273 22.8072C27.9871 22.4796 27.6338 22.265 27.2322 22.2032C26.8307 22.1414 26.4292 22.2395 26.1015 22.4798C25.7739 22.7199 25.5594 23.0732 25.4975 23.4748C25.4356 23.8763 25.5339 24.2779 25.7741 24.6055C25.7741 24.6057 25.7743 24.6058 25.7744 24.606L27.9646 27.585C28.2048 27.9126 28.5582 28.1271 28.9597 28.1889C29.0382 28.2011 29.1166 28.207 29.1945 28.207C29.5153 28.207 29.8267 28.1058 30.0903 27.9125C30.2237 27.8148 30.3395 27.6972 30.4342 27.5627L34.2959 22.3105C34.5361 21.9828 34.6343 21.5813 34.5724 21.1798C34.5106 20.7782 34.2961 20.4248 33.9684 20.1847ZM33.6157 21.8112L29.7518 27.0665C29.7499 27.0691 29.748 27.0717 29.7461 27.0743C29.7038 27.1347 29.6519 27.1877 29.5915 27.2319C29.4456 27.3389 29.2669 27.3825 29.088 27.355C28.9093 27.3275 28.7519 27.232 28.6446 27.0857L26.4541 24.1062C26.3474 23.9604 26.3038 23.7818 26.3313 23.6032C26.3589 23.4245 26.4543 23.2671 26.6002 23.1602C26.7461 23.0532 26.9248 23.0097 27.1037 23.0371C27.2824 23.0646 27.4397 23.1601 27.547 23.3064L28.8513 25.0804C28.9307 25.1885 29.057 25.2523 29.1912 25.2523C29.3254 25.2523 29.4516 25.1885 29.5311 25.0804L32.5231 21.0109C32.63 20.865 32.7873 20.7695 32.966 20.742C33.1448 20.7147 33.3236 20.7582 33.4695 20.8652C33.6154 20.9721 33.7109 21.1294 33.7384 21.3082C33.7659 21.4869 33.7222 21.6657 33.6156 21.8111L33.6157 21.8112Z" fill="#0C1620"/>
</svg>
