<svg width="60" height="60" viewBox="0 0 60 60" fill="none" xmlns="http://www.w3.org/2000/svg">
<rect x="0.5" y="0.5" width="59" height="59" rx="29.5" fill="white"/>
<g clip-path="url(#clip0_2001_1926)">
<path d="M48.0067 29.3201L47.8571 28.4719C47.7082 27.6469 47.3351 26.8789 46.7785 26.252C46.222 25.6251 45.5035 25.1636 44.702 24.918L46.5079 23.8754C46.5639 23.8431 46.613 23.8001 46.6524 23.7488C46.6918 23.6975 46.7206 23.639 46.7374 23.5765C46.7541 23.5141 46.7584 23.449 46.75 23.3849C46.7415 23.3208 46.7205 23.2589 46.6882 23.203L46.2576 22.4571C45.8357 21.7327 45.2223 21.1385 44.485 20.7397C43.7476 20.341 42.9146 20.153 42.0774 20.1964L43.4178 18.5992C43.5015 18.4992 43.5421 18.37 43.5308 18.2401C43.5194 18.1102 43.4569 17.9901 43.3571 17.9062L42.6976 17.3527C42.0533 16.8163 41.2737 16.4677 40.4444 16.3451C39.6151 16.2226 38.768 16.3308 37.9962 16.658L38.7094 14.6985C38.7316 14.6377 38.7416 14.5732 38.7388 14.5086C38.7361 14.4439 38.7206 14.3805 38.6932 14.3218C38.6659 14.2632 38.6273 14.2105 38.5796 14.1668C38.5319 14.1231 38.476 14.0892 38.4152 14.0671L37.6058 13.7718C36.8169 13.4882 35.9651 13.4274 35.1439 13.5961C34.3227 13.7648 33.5638 14.1564 32.9506 14.728V12.6426C32.9506 12.5779 32.9379 12.5139 32.9132 12.4542C32.8884 12.3945 32.8522 12.3402 32.8065 12.2945C32.7608 12.2488 32.7065 12.2125 32.6468 12.1878C32.587 12.1631 32.523 12.1504 32.4584 12.1504H31.5972C30.7589 12.1536 29.9376 12.3876 29.2236 12.8268C28.5095 13.2659 27.9302 13.8933 27.5491 14.64L26.8362 12.6805C26.8141 12.6197 26.7802 12.5638 26.7365 12.516C26.6928 12.4683 26.6401 12.4296 26.5814 12.4023C26.5227 12.375 26.4592 12.3595 26.3945 12.3568C26.3299 12.354 26.2653 12.3641 26.2045 12.3864L25.3959 12.6808C24.6091 12.9704 23.9172 13.4711 23.3963 14.1281C22.8753 14.785 22.5454 15.5727 22.4428 16.4049L21.1023 14.8074C21.0184 14.708 20.8986 14.6459 20.769 14.6345C20.6394 14.6232 20.5106 14.6636 20.4107 14.7469L19.7512 15.3004C19.1111 15.8417 18.6324 16.5489 18.3677 17.3443C18.103 18.1398 18.0626 18.9927 18.2507 19.8097L16.4451 18.7668C16.332 18.7017 16.1977 18.684 16.0716 18.7178C15.9455 18.7516 15.838 18.8341 15.7726 18.9471L15.3421 19.693C14.9259 20.4207 14.7181 21.2489 14.7415 22.0869C14.7649 22.9249 15.0186 23.7402 15.4748 24.4435L13.4217 24.0813C13.358 24.07 13.2927 24.0714 13.2296 24.0854C13.1665 24.0993 13.1067 24.1256 13.0538 24.1627C13.0008 24.1998 12.9557 24.247 12.921 24.3016C12.8863 24.3561 12.8627 24.417 12.8516 24.4807L12.7017 25.3289C12.5593 26.1547 12.6469 27.0037 12.955 27.783C13.263 28.5622 13.7797 29.2417 14.4482 29.7468L12.3951 30.1096C12.3315 30.1208 12.2706 30.1445 12.2161 30.1792C12.1616 30.2139 12.1144 30.259 12.0774 30.3119C12.0403 30.3649 12.014 30.4246 12 30.4877C11.986 30.5508 11.9845 30.616 11.9957 30.6797L12.1454 31.528C12.2942 32.353 12.6674 33.1211 13.224 33.748C13.7806 34.3749 14.4991 34.8364 15.3007 35.0818L13.4948 36.1244C13.4388 36.1567 13.3897 36.1998 13.3503 36.251C13.311 36.3023 13.2821 36.3609 13.2653 36.4233C13.2486 36.4858 13.2443 36.5509 13.2528 36.615C13.2612 36.6791 13.2822 36.7409 13.3145 36.7969L13.7451 37.5428C14.1677 38.2665 14.7811 38.8602 15.5183 39.2589C16.2555 39.6576 17.088 39.846 17.9251 39.8035L16.5857 41.4007C16.5019 41.5006 16.4611 41.6296 16.4723 41.7596C16.4835 41.8895 16.5459 42.0097 16.6456 42.0937L17.3052 42.6472C17.9494 43.1836 18.729 43.5322 19.5583 43.6547C20.3876 43.7772 21.2347 43.669 22.0066 43.3419L21.2933 45.3013C21.2487 45.424 21.2547 45.5593 21.3098 45.6776C21.365 45.7959 21.4649 45.8875 21.5875 45.9322L22.3969 46.2266C23.1858 46.5104 24.0377 46.5712 24.8589 46.4026C25.6801 46.2339 26.439 45.8421 27.0522 45.2704V47.3556C27.0521 47.4202 27.0648 47.4842 27.0896 47.544C27.1143 47.6037 27.1505 47.658 27.1963 47.7037C27.242 47.7494 27.2962 47.7857 27.356 47.8104C27.4157 47.8351 27.4797 47.8478 27.5444 47.8478H28.4056C29.2439 47.8445 30.0651 47.6105 30.7791 47.1713C31.4932 46.7322 32.0725 46.1048 32.4536 45.3581L33.1666 47.3176C33.2113 47.4402 33.3028 47.5401 33.4211 47.5953C33.5394 47.6504 33.6747 47.6564 33.7974 47.6118L34.6068 47.3173C35.3936 47.0277 36.0855 46.527 36.6064 45.87C37.1273 45.2131 37.4572 44.4254 37.56 43.5933L38.9004 45.1908C38.9843 45.2907 39.1045 45.3532 39.2345 45.3646C39.3645 45.3759 39.4937 45.3352 39.5937 45.2513L40.2535 44.6978C40.8936 44.1564 41.3722 43.4492 41.6369 42.6538C41.9016 41.8584 41.9421 41.0054 41.754 40.1885L43.5599 41.2314C43.6159 41.2637 43.6777 41.2847 43.7418 41.2931C43.8059 41.3016 43.871 41.2973 43.9335 41.2805C43.9959 41.2638 44.0544 41.2349 44.1057 41.1955C44.157 41.1562 44.2 41.1071 44.2323 41.0511L44.6629 40.3052C45.0791 39.5775 45.2869 38.7493 45.2635 37.9113C45.24 37.0733 44.9863 36.2579 44.5302 35.5546L46.5833 35.9169C46.647 35.9281 46.7122 35.9267 46.7753 35.9127C46.8384 35.8987 46.8982 35.8724 46.9511 35.8353C47.0041 35.7982 47.0492 35.7511 47.0839 35.6965C47.1186 35.642 47.1422 35.5812 47.1534 35.5175L47.3033 34.6692C47.4451 33.8435 47.357 32.9947 47.0485 32.2158C46.7401 31.4368 46.2232 30.7578 45.5545 30.253L47.6076 29.8908C47.7362 29.868 47.8505 29.7951 47.9253 29.6881C48.0002 29.5811 48.0294 29.4487 48.0067 29.3201ZM43.9961 29.5274C43.883 29.5494 43.7809 29.6095 43.7069 29.6977C43.6328 29.7859 43.5912 29.8969 43.5891 30.012V30.0325C43.5892 30.1365 43.6221 30.2378 43.6832 30.3218C43.7444 30.4059 43.8306 30.4685 43.9294 30.5005C44.7431 30.7682 45.4334 31.3193 45.8747 32.0535C46.3159 32.7876 46.4787 33.6558 46.3333 34.4999L46.2694 34.8633L43.3163 34.3427C43.1982 34.3267 43.0783 34.3521 42.9768 34.4144C42.8752 34.4767 42.7983 34.5722 42.7591 34.6847C42.7249 34.7819 42.722 34.8874 42.7508 34.9863C42.7796 35.0852 42.8387 35.1726 42.9197 35.2362C43.5925 35.766 44.0526 36.5198 44.2161 37.3603C44.3797 38.2009 44.2358 39.0722 43.8107 39.8155L43.626 40.135L41.0252 38.6335C40.9208 38.578 40.8004 38.5602 40.6845 38.5832C40.5685 38.6061 40.4639 38.6684 40.3885 38.7595C40.3221 38.8391 40.2826 38.9377 40.2756 39.0411C40.2686 39.1446 40.2944 39.2476 40.3494 39.3355C40.8012 40.0635 40.9762 40.9298 40.8425 41.7762C40.7087 42.6225 40.2752 43.3926 39.621 43.946L39.3397 44.1834L37.4098 41.883C37.332 41.7968 37.2274 41.7395 37.1129 41.7204C36.9984 41.7012 36.8808 41.7214 36.7792 41.7775C36.6864 41.8284 36.6124 41.9079 36.5682 42.0042C36.5241 42.1004 36.5122 42.2084 36.5342 42.3119C36.7097 43.1505 36.5778 44.0243 36.1627 44.7738C35.7476 45.5233 35.0769 46.0986 34.273 46.3948L33.9259 46.5208L32.8991 43.6993C32.855 43.5901 32.7747 43.4993 32.6716 43.4422C32.5685 43.3852 32.4489 43.3653 32.3329 43.386C32.2303 43.4039 32.136 43.4539 32.0635 43.5288C31.9911 43.6037 31.9443 43.6996 31.9299 43.8028C31.8079 44.6509 31.3851 45.4268 30.7386 45.9891C30.0922 46.5514 29.2651 46.8626 28.4084 46.8659H28.0366V43.8625C28.0325 43.7443 27.9877 43.6312 27.9099 43.5422C27.8321 43.4532 27.7259 43.3937 27.6093 43.3739C27.5072 43.3563 27.4021 43.3712 27.3089 43.4167C27.2157 43.4621 27.1392 43.5357 27.0901 43.627C26.6854 44.3822 26.0228 44.9667 25.2231 45.274C24.4233 45.5813 23.5398 45.5909 22.7336 45.301L22.3868 45.1748L23.4136 42.3535C23.4498 42.2428 23.4472 42.1231 23.4063 42.014C23.3654 41.905 23.2887 41.8131 23.1886 41.7534C23.0982 41.6992 22.9929 41.6755 22.888 41.6856C22.7831 41.6957 22.6843 41.7392 22.6059 41.8096C21.9675 42.381 21.145 42.7039 20.2883 42.7194C19.4317 42.7349 18.598 42.4419 17.9394 41.894L17.6581 41.6566L19.5884 39.3565C19.6617 39.2689 19.7024 39.1586 19.7033 39.0443C19.7042 38.93 19.6654 38.819 19.5934 38.7302C19.5903 38.726 19.574 38.7071 19.5704 38.7021C19.5032 38.6244 19.4135 38.5696 19.3136 38.5456C19.2138 38.5215 19.1089 38.5293 19.0138 38.5679C18.2183 38.8862 17.3349 38.9079 16.5247 38.6291C15.7145 38.3503 15.0316 37.7896 14.6004 37.0492L14.4159 36.7297L17.0121 35.2306C17.1092 35.1719 17.1837 35.0823 17.2235 34.9761C17.2634 34.8699 17.2663 34.7534 17.2318 34.6453L17.2222 34.6172C17.1866 34.5194 17.1211 34.4353 17.0349 34.377C16.9488 34.3186 16.8464 34.2889 16.7424 34.2921C15.8863 34.319 15.0491 34.0374 14.3833 33.4987C13.7174 32.9599 13.2674 32.1998 13.1151 31.357L13.051 30.9936L16.0066 30.4724C16.1224 30.4477 16.226 30.3839 16.3001 30.2917C16.3743 30.1994 16.4143 30.0845 16.4136 29.9662C16.4136 29.8622 16.3807 29.7609 16.3196 29.6768C16.2584 29.5928 16.1722 29.5302 16.0733 29.4982C15.2599 29.2305 14.5697 28.6796 14.1285 27.9457C13.6872 27.2118 13.5243 26.3438 13.6695 25.4999L13.7333 25.1365L16.6864 25.6571C16.8044 25.6726 16.9242 25.6471 17.0256 25.5848C17.127 25.5226 17.204 25.4274 17.2436 25.3151C17.2778 25.2179 17.2807 25.1124 17.2518 25.0135C17.223 24.9146 17.1638 24.8272 17.0827 24.7636C16.4102 24.2336 15.9505 23.4797 15.7873 22.6392C15.624 21.7987 15.7682 20.9275 16.1934 20.1843L16.3779 19.8648L18.9789 21.3664C19.0833 21.4221 19.2037 21.4399 19.3197 21.417C19.4358 21.394 19.5403 21.3316 19.6156 21.2404C19.682 21.1607 19.7215 21.0622 19.7285 20.9587C19.7355 20.8553 19.7097 20.7523 19.6547 20.6644C19.2031 19.9364 19.0282 19.0704 19.1618 18.2242C19.2954 17.3781 19.7287 16.6081 20.3826 16.0547L20.6639 15.8173L22.5938 18.1177C22.6716 18.2038 22.7763 18.261 22.8907 18.2802C23.0052 18.2993 23.1228 18.2792 23.2244 18.2231C23.3172 18.1722 23.3912 18.0928 23.4353 17.9965C23.4795 17.9003 23.4914 17.7923 23.4693 17.6888C23.294 16.8499 23.4262 15.976 23.8417 15.2264C24.2571 14.4769 24.9283 13.9017 25.7326 13.6059L26.0796 13.4796L27.1065 16.3014C27.1505 16.4107 27.2308 16.5015 27.3339 16.5585C27.437 16.6156 27.5566 16.6354 27.6726 16.6147C27.7753 16.5968 27.8696 16.5468 27.942 16.4719C28.0144 16.397 28.0612 16.3011 28.0756 16.1979C28.1977 15.3498 28.6205 14.5739 29.2669 14.0116C29.9134 13.4493 30.7404 13.1381 31.5972 13.1348H31.9662V16.1374C31.9703 16.2556 32.015 16.3687 32.0928 16.4577C32.1707 16.5467 32.2768 16.6061 32.3934 16.6259C32.4956 16.644 32.6008 16.6292 32.6941 16.5837C32.7874 16.5382 32.8639 16.4644 32.9126 16.3728C33.3173 15.6177 33.9799 15.0332 34.7797 14.7259C35.5794 14.4186 36.4629 14.409 37.2691 14.6988L37.6159 14.8251L36.5891 17.6452C36.553 17.7559 36.5557 17.8756 36.5965 17.9846C36.6374 18.0937 36.7141 18.1856 36.8141 18.2454C36.9045 18.2995 37.0099 18.3233 37.1149 18.3132C37.2198 18.3031 37.3187 18.2596 37.3971 18.1891C38.0355 17.6177 38.858 17.2948 39.7147 17.2793C40.5713 17.2639 41.405 17.5568 42.0636 18.1047L42.3449 18.3421L40.4149 20.6422C40.3415 20.7298 40.3009 20.8402 40.3 20.9544C40.2991 21.0687 40.3379 21.1797 40.4099 21.2685C40.4144 21.2741 40.4324 21.295 40.438 21.3003C40.5055 21.3762 40.5948 21.4294 40.6937 21.4525C40.7926 21.4757 40.8962 21.4677 40.9904 21.4297C41.7859 21.1114 42.6693 21.0897 43.4794 21.3685C44.2896 21.6473 44.9726 22.208 45.4037 22.9484L45.5882 23.2679L42.992 24.767C42.895 24.8257 42.8205 24.9153 42.7806 25.0215C42.7408 25.1277 42.7379 25.2442 42.7724 25.3523C42.7743 25.3582 42.7797 25.3748 42.7819 25.3804C42.8175 25.4782 42.883 25.5623 42.9692 25.6207C43.0553 25.6791 43.1577 25.7088 43.2617 25.7055C44.1175 25.6793 44.9542 25.9614 45.6195 26.5003C46.2847 27.0392 46.7343 27.7992 46.8862 28.6418L46.9503 29.0051L43.9961 29.5274Z" fill="#0C1620"/>
<path d="M30.0026 18.7432C27.7763 18.7431 25.6 19.4032 23.7489 20.64C21.8979 21.8768 20.4551 23.6347 19.6031 25.6915C18.751 27.7482 18.5281 30.0115 18.9623 32.1949C19.3966 34.3784 20.4685 36.3841 22.0427 37.9584C23.6168 39.5326 25.6224 40.6048 27.8059 41.0392C29.9893 41.4736 32.2526 41.2508 34.3094 40.3989C36.3662 39.547 38.1242 38.1044 39.3612 36.2534C40.5981 34.4024 41.2584 32.2262 41.2585 29.9999C41.2553 27.0156 40.0684 24.1544 37.9582 22.044C35.848 19.9337 32.9869 18.7466 30.0026 18.7432ZM30.0026 40.2709C27.9709 40.2709 25.9849 39.6685 24.2957 38.5398C22.6064 37.4112 21.2898 35.8069 20.5124 33.9299C19.7349 32.053 19.5315 29.9876 19.9279 27.995C20.3242 26.0024 21.3026 24.1721 22.7392 22.7356C24.1758 21.2991 26.0062 20.3208 27.9988 19.9245C29.9914 19.5283 32.0567 19.7318 33.9337 20.5094C35.8106 21.2869 37.4148 22.6036 38.5434 24.2929C39.672 25.9822 40.2743 27.9683 40.2741 29.9999C40.2708 32.723 39.1875 35.3336 37.2619 37.2591C35.3363 39.1846 32.7257 40.2677 30.0026 40.2709Z" fill="#0C1620"/>
<path d="M30.0028 24.9424C29.0026 24.9423 28.0248 25.2389 27.1931 25.7945C26.3615 26.3501 25.7132 27.1399 25.3304 28.0639C24.9476 28.988 24.8474 30.0048 25.0424 30.9858C25.2375 31.9668 25.719 32.8679 26.4262 33.5752C27.1334 34.2825 28.0345 34.7642 29.0154 34.9594C29.9964 35.1547 31.0132 35.0546 31.9373 34.6719C32.8614 34.2893 33.6513 33.6412 34.2071 32.8096C34.7628 31.978 35.0595 31.0003 35.0596 30.0001C35.0584 28.6592 34.5252 27.3737 33.5772 26.4255C32.6291 25.4772 31.3436 24.9439 30.0028 24.9424ZM30.0028 34.072C29.1972 34.0721 28.4097 33.8333 27.7399 33.3857C27.0701 32.9382 26.548 32.3021 26.2397 31.5578C25.9314 30.8136 25.8508 29.9946 26.008 29.2046C26.1652 28.4145 26.5531 27.6888 27.1228 27.1192C27.6924 26.5496 28.4182 26.1617 29.2083 26.0047C29.9984 25.8476 30.8174 25.9283 31.5616 26.2367C32.3058 26.5451 32.9418 27.0672 33.3893 27.7371C33.8367 28.407 34.0754 29.1945 34.0753 30.0001C34.0736 31.0796 33.644 32.1145 32.8806 32.8778C32.1172 33.6411 31.0823 34.0706 30.0028 34.072Z" fill="#0C1620"/>
<path d="M30.0023 27.1724C29.4433 27.1724 28.8969 27.3381 28.4321 27.6487C27.9673 27.9592 27.605 28.4006 27.391 28.9171C27.1771 29.4335 27.121 30.0018 27.23 30.5501C27.339 31.0983 27.6081 31.602 28.0034 31.9973C28.3986 32.3926 28.9021 32.6619 29.4504 32.7711C29.9986 32.8802 30.5669 32.8244 31.0834 32.6106C31.5999 32.3968 32.0414 32.0346 32.3521 31.5699C32.6628 31.1052 32.8287 30.5588 32.8289 29.9998C32.8282 29.2502 32.5303 28.5316 32.0003 28.0015C31.4704 27.4715 30.7519 27.1733 30.0023 27.1724ZM30.0023 31.8411C29.638 31.8411 29.2818 31.733 28.9788 31.5306C28.6758 31.3281 28.4397 31.0404 28.3003 30.7037C28.1609 30.367 28.1245 29.9966 28.1956 29.6392C28.2668 29.2819 28.4423 28.9536 28.7 28.696C28.9577 28.4384 29.2861 28.263 29.6435 28.192C30.0009 28.121 30.3713 28.1576 30.7079 28.2972C31.0445 28.4368 31.3322 28.673 31.5345 28.9761C31.7368 29.2791 31.8447 29.6354 31.8445 29.9998C31.8437 30.488 31.6493 30.956 31.304 31.3012C30.9587 31.6464 30.4906 31.8405 30.0023 31.8411Z" fill="#0C1620"/>
</g>
<defs>
<clipPath id="clip0_2001_1926">
<rect width="36" height="36" fill="white" transform="translate(12 12)"/>
</clipPath>
</defs>
</svg>
